<?xml version="1.0" encoding="utf-8"?>
<svg version="1.1" xmlns:xlink="http://www.w3.org/1999/xlink" width="26px" height="26px" xmlns="http://www.w3.org/2000/svg">
  <g transform="matrix(1 0 0 1 -20 -157 )">
    <path d="M 25.125 9.321991178323882  C 25.708333333333336 9.420289855072465  26 9.671497584541063  26 10.07561436672968  C 26 10.315900021003989  25.864583333333336 10.578029825666874  25.59375 10.862003780718336  L 19.921875 16.66162570888469  L 21.265625 24.853182104599874  C 21.276041666666668 24.929636630959884  21.28125 25.038857382902748  21.28125 25.18084436042848  C 21.28125 25.410207939508506  21.2265625 25.6040747742071  21.1171875 25.76244486452426  C 21.0078125 25.920814954841422  20.848958333333336 26  20.640625 26  C 20.442708333333336 26  20.234375 25.934467548834277  20.015625 25.803402646502835  L 13 21.936988027725267  L 5.984375 25.803402646502835  C 5.755208333333334 25.934467548834277  5.546875 26  5.359375 26  C 5.140625 26  4.9765625 25.920814954841422  4.8671875 25.76244486452426  C 4.7578125 25.6040747742071  4.703125 25.410207939508506  4.703125 25.18084436042848  C 4.703125 25.11531190926276  4.713541666666667 25.00609115731989  4.734375 24.853182104599874  L 6.078125 16.66162570888469  L 0.390625 10.862003780718336  C 0.13020833333333331 10.567107750472589  0 10.304977945809705  0 10.07561436672968  C 0 9.671497584541063  0.29166666666666663 9.420289855072465  0.875 9.321991178323882  L 8.71875 8.126023944549463  L 12.234375 0.671707624448644  C 12.432291666666668 0.22390254148288036  12.6875 0  13 0  C 13.312499999999998 0  13.567708333333334 0.22390254148288036  13.765625 0.671707624448644  L 17.28125 8.126023944549463  L 25.125 9.321991178323882  Z " fill-rule="nonzero" fill="#f2aa1f" stroke="none" transform="matrix(1 0 0 1 20 157 )" />
  </g>
</svg>