<?xml version="1.0" encoding="utf-8"?>
<svg version="1.1" xmlns:xlink="http://www.w3.org/1999/xlink" width="45px" height="35px" xmlns="http://www.w3.org/2000/svg">
  <g transform="matrix(1 0 0 1 -300 -217 )">
    <path d="M 322.5 217  C 335.1 217  345 224.7  345 234.5  C 345 244.3  335.1 252  322.5 252  C 309.9 252  300 244.3  300 234.5  C 300 224.7  309.9 217  322.5 217  Z " fill-rule="nonzero" fill="#ffffff" stroke="none" />
    <path d="M 322.5 217.5  C 334.82 217.5  344.5 224.98  344.5 234.5  C 344.5 244.02  334.82 251.5  322.5 251.5  C 310.18 251.5  300.5 244.02  300.5 234.5  C 300.5 224.98  310.18 217.5  322.5 217.5  Z " stroke-width="1" stroke="#797979" fill="none" />
  </g>
</svg>