<?xml version="1.0" encoding="utf-8"?>
<svg version="1.1" xmlns:xlink="http://www.w3.org/1999/xlink" width="31px" height="32px" xmlns="http://www.w3.org/2000/svg">
  <g transform="matrix(1 0 0 1 -330 -757 )">
    <path d="M 29.893474623535973 0  C 30.12400074363265 0  30.33147425171965 0.06547619047619335  30.51589514779699 0.19642857142857295  C 30.8962632459565 0.48214285714285765  31.05186837702176 0.8630952380952372  30.98271054099275 1.3392857142857153  L 26.556609035136646 28.767857142857142  C 26.498977505112475 29.113095238095237  26.314556609035137 29.38095238095238  26.00334634690463 29.571428571428573  C 25.841978062836958 29.666666666666664  25.66332031976204 29.714285714285715  25.467373117679866 29.714285714285715  C 25.340583751626696 29.714285714285715  25.202268079568693 29.684523809523807  25.052426101505855 29.625  L 17.22030117122142 26.32142857142857  L 13.036252091466816 31.589285714285715  C 12.82877858337981 31.863095238095237  12.546384086261389 32  12.189068600111545 32  C 12.039226622048709 32  11.912437255995538 31.976190476190478  11.808700501952035 31.928571428571427  C 11.589700687860198 31.845238095238095  11.413924521286486 31.705357142857142  11.281372002230897 31.508928571428573  C 11.148819483175313 31.3125  11.082543223647518 31.095238095238095  11.082543223647518 30.857142857142858  L 11.082543223647518 24.625  L 26.02063580591188 5.714285714285715  L 7.538204127161182 22.232142857142858  L 0.7088678192972672 19.339285714285715  C 0.2823944971184235 19.172619047619044  0.05186837702175126 18.845238095238095  0.01728945900725042 18.357142857142858  C -0.005763153002416808 17.88095238095238  0.17865774307492097 17.529761904761905  0.5705521472392638 17.30357142857143  L 29.34021193530396 0.1607142857142847  C 29.513106525376465 0.05357142857142705  29.697527421453806 0  29.893474623535973 0  Z " fill-rule="nonzero" fill="#015e87" stroke="none" transform="matrix(1 0 0 1 330 757 )" />
  </g>
</svg>