<?xml version="1.0" encoding="utf-8"?>
<svg version="1.1" xmlns:xlink="http://www.w3.org/1999/xlink" width="24px" height="29px" xmlns="http://www.w3.org/2000/svg">
  <g transform="matrix(1 0 0 1 -290 -114 )">
    <path d="M 14.342541436464089 22.928125  C 14.917127071823206 21.714299242424243  15.16022099447514 20.415340909090908  15.07182320441989 19.03125  L 16.574585635359117 22.392613636363638  C 16.004910988336405 24.358901515151512  14.973603437691835 25.951704545454547  13.480662983425415 27.171022727272724  C 11.987722529158994 28.39034090909091  10.322897483118478 29  8.486187845303867 29  C 6.953959484346226 29  5.537139349294046 28.57433712121212  4.235727440147329 27.723011363636363  C 2.934315531000614 26.871685606060602  1.903007980356047 25.718276515151516  1.1418047882136282 24.26278409090909  C 0.38060159607120936 22.807291666666668  0 21.222727272727273  0 19.509090909090908  C 0 17.520833333333332  0.5131982811540822 15.708333333333332  1.5395948434622468 14.07159090909091  C 2.5659914057704114 12.434848484848484  3.9140577041129534 11.27594696969697  5.583793738489871 10.594886363636364  L 5.834254143646408 12.753409090909091  C 4.63597298956415 13.346590909090908  3.6783302639656235 14.255587121212121  2.9613259668508287 15.480397727272727  C 2.2443216697360344 16.70520833333333  1.885819521178637 18.04810606060606  1.885819521178637 19.509090909090908  C 1.885819521178637 21.541287878787877  2.5316144874155926 23.279640151515153  3.823204419889503 24.724147727272726  C 5.114794352363413 26.168655303030306  6.669122160834869 26.89090909090909  8.486187845303867 26.89090909090909  C 9.723756906077348 26.89090909090909  10.865561694290976 26.533901515151513  11.911602209944752 25.819886363636364  C 12.957642725598529 25.10587121212121  13.767955801104973 24.14195075757576  14.342541436464089 22.928125  Z M 20.228360957642725 22.31022727272727  L 23.14548802946593 20.678977272727273  L 24 22.557386363636365  L 20.228360957642725 24.666477272727274  C 20.10067526089626 24.743371212121215  19.95825659914058 24.78181818181818  19.80110497237569 24.78181818181818  C 19.408225905463475 24.78181818181818  19.128299570288522 24.589583333333334  18.96132596685083 24.205113636363638  L 15.440147329650092 16.345454545454547  L 8.486187845303867 16.345454545454547  C 8.250460405156538 16.345454545454547  8.041743400859424 16.254829545454548  7.860036832412523 16.073579545454542  C 7.6783302639656235 15.892329545454547  7.572744014732965 15.669886363636362  7.543278084714548 15.40625  L 6.128913443830571 2.5704545454545453  C 6.1092694904849605 2.38371212121212  6.138735420503377 2.1530303030302993  6.21731123388582 1.8784090909090922  C 6.354818907305096 1.318181818181817  6.634745242480049 0.865056818181817  7.057090239410682 0.5190340909090921  C 7.479435236341315 0.17301136363636405  7.955801104972375 0  8.486187845303867 0  C 9.134438305709025 0  9.68937998772253 0.25814393939393643  10.151012891344383 0.7744318181818189  C 10.612645794966237 1.290719696969695  10.843462246777165 1.9113636363636366  10.843462246777165 2.636363636363637  C 10.843462246777165 3.3943181818181825  10.588090853284225 4.039678030303026  10.077348066298342 4.572443181818183  C 9.566605279312462 5.105208333333333  8.977286678944138 5.3331439393939375  8.30939226519337 5.2562500000000005  L 8.85451197053407 10.018181818181818  L 15.086556169429096 10.018181818181818  L 15.086556169429096 12.127272727272729  L 9.090239410681399 12.127272727272729  L 9.32596685082873 14.236363636363638  L 16.029465930018414 14.236363636363638  C 16.422344996930633 14.236363636363638  16.70227133210559 14.428598484848486  16.86924493554328 14.813068181818181  L 20.228360957642725 22.31022727272727  Z " fill-rule="nonzero" fill="#f2aa1f" stroke="none" transform="matrix(1 0 0 1 290 114 )" />
  </g>
</svg>