<?xml version="1.0" encoding="utf-8"?>
<svg version="1.1" xmlns:xlink="http://www.w3.org/1999/xlink" width="14px" height="14px" viewBox="10 205.5  14 14" xmlns="http://www.w3.org/2000/svg">
  <path d="M 10.5 207.5  A 1.5 1.5 0 0 1 12 206 L 22 206  A 1.5 1.5 0 0 1 23.5 207.5 L 23.5 217.5  A 1.5 1.5 0 0 1 22 219 L 12 219  A 1.5 1.5 0 0 1 10.5 217.5 L 10.5 207.5  Z " fill-rule="nonzero" fill="#ffffff" stroke="none" />
  <path d="M 10.5 207.5  A 1.5 1.5 0 0 1 12 206 L 22 206  A 1.5 1.5 0 0 1 23.5 207.5 L 23.5 217.5  A 1.5 1.5 0 0 1 22 219 L 12 219  A 1.5 1.5 0 0 1 10.5 217.5 L 10.5 207.5  Z " stroke-width="1" stroke="#c2c2c2" fill="none" />
</svg>