<?xml version="1.0" encoding="utf-8"?>
<svg version="1.1" xmlns:xlink="http://www.w3.org/1999/xlink" width="14px" height="14px" viewBox="10 133.5  14 14" xmlns="http://www.w3.org/2000/svg">
  <path d="M 10.5 135.5  A 1.5 1.5 0 0 1 12 134 L 22 134  A 1.5 1.5 0 0 1 23.5 135.5 L 23.5 145.5  A 1.5 1.5 0 0 1 22 147 L 12 147  A 1.5 1.5 0 0 1 10.5 145.5 L 10.5 135.5  Z " fill-rule="nonzero" fill="#ffffff" stroke="none" />
  <path d="M 10.5 135.5  A 1.5 1.5 0 0 1 12 134 L 22 134  A 1.5 1.5 0 0 1 23.5 135.5 L 23.5 145.5  A 1.5 1.5 0 0 1 22 147 L 12 147  A 1.5 1.5 0 0 1 10.5 145.5 L 10.5 135.5  Z " stroke-width="1" stroke="#1e98d7" fill="none" />
  <path d="M 13 140.5  L 16 143.5  L 21 136.5  " stroke-width="3" stroke="#1e98d7" fill="none" />
</svg>