<?xml version="1.0" encoding="utf-8"?>
<svg version="1.1" xmlns:xlink="http://www.w3.org/1999/xlink" width="20px" height="20px" xmlns="http://www.w3.org/2000/svg">
  <defs>
    <mask fill="white" id="clip43">
      <path d="M 19.326923076923077 7.170762444864525  C 19.775641025641026 7.246376811594204  20 7.439613526570048  20 7.750472589792061  C 20 7.935307708464608  19.895833333333336 8.13694601974375  19.6875 8.355387523629489  L 15.324519230769232 12.81663516068053  L 16.358173076923077 19.117832388153747  C 16.366185897435898 19.176643562276833  16.370192307692307 19.260659525309805  16.370192307692307 19.369880277252676  C 16.370192307692307 19.546313799621927  16.328125 19.69544213400546  16.243990384615387 19.817265280403277  C 16.15985576923077 19.939088426801092  16.03766025641026 20  15.877403846153847 20  C 15.725160256410257 20  15.564903846153847 19.949590422180215  15.396634615384615 19.848771266540645  L 10 16.874606175173284  L 4.603365384615384 19.848771266540645  C 4.427083333333334 19.949590422180215  4.266826923076923 20  4.122596153846153 20  C 3.954326923076923 20  3.828125 19.939088426801092  3.743990384615384 19.817265280403277  C 3.659855769230769 19.69544213400546  3.6177884615384617 19.546313799621927  3.6177884615384617 19.369880277252676  C 3.6177884615384617 19.31947069943289  3.6258012820512824 19.235454736399916  3.641826923076923 19.117832388153747  L 4.675480769230769 12.81663516068053  L 0.3004807692307692 8.355387523629489  C 0.1001602564102564 8.128544423440454  0 7.926906112161312  0 7.750472589792061  C 0 7.439613526570048  0.22435897435897434 7.246376811594204  0.673076923076923 7.170762444864525  L 6.706730769230768 6.250787649653433  L 9.411057692307693 0.516698172652803  C 9.563301282051283 0.17223272421760027  9.759615384615385 0  10 0  C 10.240384615384615 0  10.436698717948719 0.17223272421760027  10.588942307692308 0.516698172652803  L 13.293269230769232 6.250787649653433  L 19.326923076923077 7.170762444864525  Z " fill-rule="evenodd" />
    </mask>
  </defs>
  <g transform="matrix(1 0 0 1 -349 -266 )">
    <path d="M 19.326923076923077 7.170762444864525  C 19.775641025641026 7.246376811594204  20 7.439613526570048  20 7.750472589792061  C 20 7.935307708464608  19.895833333333336 8.13694601974375  19.6875 8.355387523629489  L 15.324519230769232 12.81663516068053  L 16.358173076923077 19.117832388153747  C 16.366185897435898 19.176643562276833  16.370192307692307 19.260659525309805  16.370192307692307 19.369880277252676  C 16.370192307692307 19.546313799621927  16.328125 19.69544213400546  16.243990384615387 19.817265280403277  C 16.15985576923077 19.939088426801092  16.03766025641026 20  15.877403846153847 20  C 15.725160256410257 20  15.564903846153847 19.949590422180215  15.396634615384615 19.848771266540645  L 10 16.874606175173284  L 4.603365384615384 19.848771266540645  C 4.427083333333334 19.949590422180215  4.266826923076923 20  4.122596153846153 20  C 3.954326923076923 20  3.828125 19.939088426801092  3.743990384615384 19.817265280403277  C 3.659855769230769 19.69544213400546  3.6177884615384617 19.546313799621927  3.6177884615384617 19.369880277252676  C 3.6177884615384617 19.31947069943289  3.6258012820512824 19.235454736399916  3.641826923076923 19.117832388153747  L 4.675480769230769 12.81663516068053  L 0.3004807692307692 8.355387523629489  C 0.1001602564102564 8.128544423440454  0 7.926906112161312  0 7.750472589792061  C 0 7.439613526570048  0.22435897435897434 7.246376811594204  0.673076923076923 7.170762444864525  L 6.706730769230768 6.250787649653433  L 9.411057692307693 0.516698172652803  C 9.563301282051283 0.17223272421760027  9.759615384615385 0  10 0  C 10.240384615384615 0  10.436698717948719 0.17223272421760027  10.588942307692308 0.516698172652803  L 13.293269230769232 6.250787649653433  L 19.326923076923077 7.170762444864525  Z " fill-rule="nonzero" fill="#f2aa1f" stroke="none" transform="matrix(1 0 0 1 349 266 )" />
    <path d="M 19.326923076923077 7.170762444864525  C 19.775641025641026 7.246376811594204  20 7.439613526570048  20 7.750472589792061  C 20 7.935307708464608  19.895833333333336 8.13694601974375  19.6875 8.355387523629489  L 15.324519230769232 12.81663516068053  L 16.358173076923077 19.117832388153747  C 16.366185897435898 19.176643562276833  16.370192307692307 19.260659525309805  16.370192307692307 19.369880277252676  C 16.370192307692307 19.546313799621927  16.328125 19.69544213400546  16.243990384615387 19.817265280403277  C 16.15985576923077 19.939088426801092  16.03766025641026 20  15.877403846153847 20  C 15.725160256410257 20  15.564903846153847 19.949590422180215  15.396634615384615 19.848771266540645  L 10 16.874606175173284  L 4.603365384615384 19.848771266540645  C 4.427083333333334 19.949590422180215  4.266826923076923 20  4.122596153846153 20  C 3.954326923076923 20  3.828125 19.939088426801092  3.743990384615384 19.817265280403277  C 3.659855769230769 19.69544213400546  3.6177884615384617 19.546313799621927  3.6177884615384617 19.369880277252676  C 3.6177884615384617 19.31947069943289  3.6258012820512824 19.235454736399916  3.641826923076923 19.117832388153747  L 4.675480769230769 12.81663516068053  L 0.3004807692307692 8.355387523629489  C 0.1001602564102564 8.128544423440454  0 7.926906112161312  0 7.750472589792061  C 0 7.439613526570048  0.22435897435897434 7.246376811594204  0.673076923076923 7.170762444864525  L 6.706730769230768 6.250787649653433  L 9.411057692307693 0.516698172652803  C 9.563301282051283 0.17223272421760027  9.759615384615385 0  10 0  C 10.240384615384615 0  10.436698717948719 0.17223272421760027  10.588942307692308 0.516698172652803  L 13.293269230769232 6.250787649653433  L 19.326923076923077 7.170762444864525  Z " stroke-width="2" stroke="#f2aa1f" fill="none" transform="matrix(1 0 0 1 349 266 )" mask="url(#clip43)" />
  </g>
</svg>