<?xml version="1.0" encoding="utf-8"?>
<svg version="1.1" xmlns:xlink="http://www.w3.org/1999/xlink" width="25px" height="25px" xmlns="http://www.w3.org/2000/svg">
  <g transform="matrix(1 0 0 1 -15 -19 )">
    <path d="M 24.448029891304348 10.020860077021823  C 24.816009963768114 10.42201540436457  25 10.906076166024818  25 11.473042362002566  L 25 13.526957637997434  C 25 14.09392383397518  24.816009963768114 14.57798459563543  24.448029891304348 14.979139922978177  C 24.080049818840582 15.380295250320925  23.601675724637683 15.5808729139923  23.012907608695652 15.5808729139923  L 11.056385869565217 15.5808729139923  L 16.032608695652172 20.298459563543002  C 16.462862318840582 20.683568677792042  16.677989130434785 21.164955070603337  16.677989130434785 21.742618741976894  C 16.677989130434785 22.32028241335045  16.462862318840582 22.801668806161747  16.032608695652172 23.186777920410783  L 14.758831521739129 24.406290115532734  C 14.339900362318842 24.80209670517758  13.830389492753623 25  13.230298913043478 25  C 12.64153079710145 25  12.126358695652174 24.80209670517758  11.684782608695652 24.406290115532734  L 0.6283967391304348 13.94415917843389  C 0.20946557971014507 13.548352588789045  0 13.066966195977747  0 12.5  C 0 11.943731279418056  0.20946557971014507 11.456996148908857  0.6283967391304348 11.0397946084724  L 11.684782608695652 0.6097560975609762  C 12.115036231884059 0.20325203252032353  12.630208333333334 0  13.230298913043478 0  C 13.819067028985508 0  14.328577898550726 0.20325203252032353  14.758831521739129 0.6097560975609762  L 16.032608695652172 1.7971758664955066  C 16.462862318840582 2.203679931536157  16.677989130434785 2.6904150620453535  16.677989130434785 3.2573812580231065  C 16.677989130434785 3.8243474540008537  16.462862318840582 4.3110825845100536  16.032608695652172 4.717586649550706  L 11.056385869565217 9.419127086007704  L 23.012907608695652 9.419127086007704  C 23.601675724637683 9.419127086007704  24.080049818840582 9.619704749679075  24.448029891304348 10.020860077021823  Z " fill-rule="nonzero" fill="#ffffff" stroke="none" transform="matrix(1 0 0 1 15 19 )" />
  </g>
</svg>