<?xml version="1.0" encoding="utf-8"?>
<svg version="1.1" xmlns:xlink="http://www.w3.org/1999/xlink" width="45px" height="35px" xmlns="http://www.w3.org/2000/svg">
  <g transform="matrix(1 0 0 1 -300 -339 )">
    <path d="M 322.5 339  C 335.1 339  345 346.7  345 356.5  C 345 366.3  335.1 374  322.5 374  C 309.9 374  300 366.3  300 356.5  C 300 346.7  309.9 339  322.5 339  Z " fill-rule="nonzero" fill="#ffffff" stroke="none" />
    <path d="M 322.5 339.5  C 334.82 339.5  344.5 346.98  344.5 356.5  C 344.5 366.02  334.82 373.5  322.5 373.5  C 310.18 373.5  300.5 366.02  300.5 356.5  C 300.5 346.98  310.18 339.5  322.5 339.5  Z " stroke-width="1" stroke="#797979" fill="none" />
  </g>
</svg>