<?xml version="1.0" encoding="utf-8"?>
<svg version="1.1" xmlns:xlink="http://www.w3.org/1999/xlink" width="13px" height="13px" xmlns="http://www.w3.org/2000/svg">
  <g transform="matrix(1 0 0 1 -20 -396 )">
    <path d="M 26.5 397  C 29.58 397  32 399.42  32 402.5  C 32 405.58  29.58 408  26.5 408  C 23.42 408  21 405.58  21 402.5  C 21 399.42  23.42 397  26.5 397  Z " fill-rule="nonzero" fill="#ffffff" stroke="none" />
    <path d="M 26.5 397  C 29.58 397  32 399.42  32 402.5  C 32 405.58  29.58 408  26.5 408  C 23.42 408  21 405.58  21 402.5  C 21 399.42  23.42 397  26.5 397  Z " stroke-width="2" stroke="#114358" fill="none" />
  </g>
</svg>