<?xml version="1.0" encoding="utf-8"?>
<svg version="1.1" xmlns:xlink="http://www.w3.org/1999/xlink" width="329px" height="6px" xmlns="http://www.w3.org/2000/svg">
  <g transform="matrix(1 0 0 1 -31 -299 )">
    <path d="M 322.4573863636364 0.4374999999999998  C 326.8191287878788 0.7291666666666641  329 1.0833333333333321  329 1.5  L 329 4.5  C 329 4.916666666666666  326.8191287878788 5.270833333333332  322.4573863636364 5.5625  C 318.09564393939394 5.854166666666666  312.79924242424244 6  306.5681818181818 6  L 22.43181818181818 6  C 16.200757575757578 6  10.904356060606062 5.854166666666666  6.542613636363637 5.5625  C 2.180871212121212 5.270833333333332  0 4.916666666666666  0 4.5  L 0 1.5  C 0 1.0833333333333321  2.180871212121212 0.7291666666666641  6.542613636363637 0.4374999999999998  C 10.904356060606062 0.14583333333333215  16.200757575757578 0  22.43181818181818 0  L 306.5681818181818 0  C 312.79924242424244 0  318.09564393939394 0.14583333333333215  322.4573863636364 0.4374999999999998  Z " fill-rule="nonzero" fill="#f2aa1f" stroke="none" transform="matrix(1 0 0 1 31 299 )" />
  </g>
</svg>