<?xml version="1.0" encoding="utf-8"?>
<svg version="1.1" xmlns:xlink="http://www.w3.org/1999/xlink" width="27px" height="27px" xmlns="http://www.w3.org/2000/svg">
  <g transform="matrix(1 0 0 1 -20 -161 )">
    <path d="M 27 5.354888613861387  C 27 5.794863861386137  26.781250000000004 6.170792079207918  26.34375 6.482673267326732  L 19 11.361386138613863  L 19 25.128712871287128  C 19.5 25.64108910891089  19.2421875 26.081064356435643  18.7265625 26.448638613861387  C 18.2109375 26.81621287128713  17.593750000000004 27  16.875 27  C 16.15625 27  15.539062500000002 26.81621287128713  15.023437500000002 26.448638613861387  C 14.507812499999998 26.081064356435643  14.25 25.64108910891089  14.25 25.128712871287128  L 14.25 18.71287128712871  L 12.75 18.71287128712871  L 12.75 25.128712871287128  C 12.75 25.64108910891089  12.4921875 26.081064356435643  11.9765625 26.448638613861387  C 11.4609375 26.81621287128713  10.843750000000002 27  10.125 27  C 9.40625 27  8.789062500000002 26.81621287128713  8.2734375 26.448638613861387  C 7.7578125 26.081064356435643  7.5 25.64108910891089  8 25.128712871287128  L 8 11.361386138613863  L 0.65625 6.482673267326732  C 0.21875000000000022 6.170792079207918  0 5.79207920792079  0 5.346534653465345  C 0 4.9009900990099  0.21875000000000022 4.522277227722769  0.65625 4.210396039603961  C 1.1093750000000002 3.898514851485147  1.6445312500000004 3.742574257425743  2.26171875 3.742574257425743  C 2.87890625 3.742574257425743  3.40625 3.898514851485147  3.84375 4.210396039603961  L 9.1875 8.019801980198022  L 17.8125 8.019801980198022  L 23.15625 4.210396039603961  C 23.593750000000004 3.898514851485147  24.125000000000004 3.742574257425743  24.75 3.742574257425743  C 25.375 3.742574257425743  25.906250000000004 3.898514851485147  26.34375 4.210396039603961  C 26.781250000000004 4.533415841584158  27 4.914913366336632  27 5.354888613861387  Z M 17.21484375 1.094368811881187  C 18.238281250000004 1.823948019801977  18.750000000000004 2.706683168316831  18.75 3.742574257425743  C 18.750000000000004 4.778465346534655  18.238281250000004 5.661200495049503  17.21484375 6.3907797029702955  C 16.19140625 7.1203589108910865  14.953125 7.485148514851486  13.5 7.485148514851486  C 12.046875 7.485148514851486  10.808593750000002 7.1203589108910865  9.78515625 6.3907797029702955  C 8.76171875 5.661200495049503  8.25 4.778465346534655  8.25 3.742574257425743  C 8.25 2.706683168316831  8.76171875 1.823948019801977  9.78515625 1.094368811881187  C 10.808593750000002 0.3647896039603936  12.046875 0  13.5 0  C 14.953125 0  16.19140625 0.3647896039603936  17.21484375 1.094368811881187  Z " fill-rule="nonzero" fill="#ffffff" stroke="none" transform="matrix(1 0 0 1 20 161 )" />
  </g>
</svg>