<?xml version="1.0" encoding="utf-8"?>
<svg version="1.1" xmlns:xlink="http://www.w3.org/1999/xlink" width="20px" height="20px" xmlns="http://www.w3.org/2000/svg">
  <g transform="matrix(1 0 0 1 -20 -468 )">
    <path d="M 9.5263671875 8.53515625  C 8.7939453125 9.51171875  7.91015625 10  6.875 10  C 5.83984375 10  4.9560546875 9.51171875  4.2236328125 8.53515625  C 3.4912109375 7.55859375  3.125 6.380208333333332  3.125 5  C 3.125 3.6197916666666674  3.4912109375 2.44140625  4.2236328125 1.46484375  C 4.9560546875 0.48828125  5.83984375 0  6.875 0  C 7.91015625 0  8.7939453125 0.48828125  9.5263671875 1.46484375  C 10.2587890625 2.44140625  10.625 3.6197916666666674  10.625 5  C 10.625 6.380208333333332  10.2587890625 7.55859375  9.5263671875 8.53515625  Z M 16.25 7.083333333333332  L 16.25 11.666666666666664  L 19.6875 11.666666666666664  C 19.772135416666668 11.666666666666664  19.845377604166668 11.707899305555554  19.9072265625 11.790364583333336  C 19.969075520833336 11.87282986111111  20 11.97048611111111  20 12.083333333333336  L 20 14.583333333333336  C 20 14.696180555555554  19.969075520833336 14.793836805555554  19.9072265625 14.876302083333336  C 19.845377604166668 14.95876736111111  19.772135416666668 15  19.6875 15  L 16.25 15  L 16.25 19.583333333333332  C 16.25 19.696180555555557  16.219075520833336 19.793836805555557  16.1572265625 19.876302083333332  C 16.095377604166668 19.95876736111111  16.022135416666668 20  15.9375 20  L 14.0625 20  C 13.977864583333336 20  13.904622395833336 19.95876736111111  13.8427734375 19.876302083333332  C 13.780924479166668 19.793836805555557  13.75 19.696180555555557  13.75 19.583333333333332  L 13.75 15  L 10.3125 15  C 10.227864583333336 15  10.154622395833336 14.95876736111111  10.0927734375 14.876302083333336  C 10.030924479166668 14.793836805555554  10 14.696180555555554  10 14.583333333333336  L 10 12.083333333333336  C 10 11.97048611111111  10.030924479166668 11.87282986111111  10.0927734375 11.790364583333336  C 10.154622395833336 11.707899305555554  10.227864583333336 11.666666666666664  10.3125 11.666666666666664  L 13.75 11.666666666666664  L 13.75 7.083333333333332  C 13.75 6.970486111111109  13.780924479166668 6.872829861111109  13.8427734375 6.790364583333332  C 13.904622395833336 6.707899305555555  13.977864583333336 6.666666666666668  14.0625 6.666666666666668  L 15.9375 6.666666666666668  C 16.022135416666668 6.666666666666668  16.095377604166668 6.707899305555555  16.1572265625 6.790364583333332  C 16.219075520833336 6.872829861111109  16.25 6.970486111111109  16.25 7.083333333333332  Z M 9.0625 12.083333333333336  L 9.0625 14.583333333333336  C 9.0625 15.034722222222223  9.186197916666668 15.425347222222223  9.43359375 15.755208333333332  C 9.680989583333334 16.085069444444443  9.973958333333334 16.25  10.3125 16.25  L 12.8125 16.25  L 12.8125 19.348958333333332  C 12.369791666666668 19.78298611111111  11.813151041666668 20  11.142578125 20  L 2.607421875 20  C 1.8196614583333335 20  1.1881510416666667 19.700520833333332  0.712890625 19.1015625  C 0.23763020833333331 18.502604166666668  0 17.67795138888889  0 16.627604166666668  C 0 16.16753472222222  0.011393229166666664 15.718315972222223  0.0341796875 15.279947916666668  C 0.05696614583333334 14.84157986111111  0.1025390625 14.368489583333336  0.1708984375 13.860677083333336  C 0.2392578125 13.352864583333336  0.32552083333333337 12.881944444444443  0.4296875 12.447916666666664  C 0.5338541666666667 12.01388888888889  0.673828125 11.590711805555554  0.849609375 11.178385416666664  C 1.0253906250000002 10.766059027777777  1.227213541666667 10.414496527777777  1.455078125 10.123697916666664  C 1.6829427083333335 9.832899305555555  1.9612630208333335 9.600694444444445  2.2900390625 9.427083333333332  C 2.618815104166667 9.253472222222221  2.981770833333334 9.166666666666668  3.37890625 9.166666666666668  C 3.502604166666667 9.166666666666668  3.629557291666667 9.24045138888889  3.759765625 9.388020833333332  C 4.274088541666667 9.917534722222221  4.777018229166667 10.31467013888889  5.2685546875 10.579427083333336  C 5.760091145833334 10.844184027777777  6.295572916666668 10.9765625  6.875 10.9765625  C 7.454427083333334 10.9765625  7.989908854166668 10.844184027777777  8.4814453125 10.579427083333336  C 8.972981770833334 10.31467013888889  9.475911458333334 9.917534722222221  9.990234375 9.388020833333332  C 10.120442708333336 9.24045138888889  10.247395833333336 9.166666666666668  10.37109375 9.166666666666668  C 11.23046875 9.166666666666668  11.936848958333336 9.583333333333332  12.490234375 10.416666666666664  L 10.3125 10.416666666666664  C 9.973958333333334 10.416666666666664  9.680989583333334 10.581597222222223  9.43359375 10.911458333333336  C 9.186197916666668 11.241319444444443  9.0625 11.631944444444443  9.0625 12.083333333333336  Z " fill-rule="nonzero" fill="#ffffff" stroke="none" transform="matrix(1 0 0 1 20 468 )" />
  </g>
</svg>