<?xml version="1.0" encoding="utf-8"?>
<svg version="1.1" xmlns:xlink="http://www.w3.org/1999/xlink" width="33px" height="29px" xmlns="http://www.w3.org/2000/svg">
  <g transform="matrix(1 0 0 1 -178 -716 )">
    <path d="M 30.790178571428573 6.00943396226415  C 32.263392857142854 7.864779874213835  33 9.88679245283019  33 12.075471698113207  C 33 14.264150943396226  32.263392857142854 16.286163522012576  30.790178571428573 18.141509433962266  C 29.316964285714285 19.99685534591195  27.315848214285715 21.462264150943398  24.786830357142858 22.537735849056602  C 22.257812500000004 23.61320754716981  19.495535714285715 24.150943396226413  16.5 24.150943396226413  C 15.640625000000002 24.150943396226413  14.750558035714286 24.10062893081761  13.829799107142858 24  C 11.398995535714286 26.20125786163522  8.575334821428573 27.723270440251568  5.358816964285714 28.566037735849058  C 4.757254464285715 28.742138364779873  4.057477678571429 28.88050314465409  3.259486607142857 28.9811320754717  C 3.05078125 29.006289308176104  2.863560267857143 28.949685534591197  2.6978236607142856 28.81132075471698  C 2.5320870535714284 28.67295597484277  2.4246651785714293 28.49056603773585  2.3755580357142856 28.264150943396228  L 2.3755580357142856 28.245283018867923  C 2.338727678571429 28.19496855345912  2.335658482142857 28.119496855345915  2.3663504464285716 28.0188679245283  C 2.397042410714286 27.91823899371069  2.4093191964285716 27.855345911949684  2.4031808035714284 27.830188679245282  C 2.397042410714286 27.80503144654088  2.4246651785714293 27.745283018867926  2.486049107142857 27.650943396226413  L 2.5965401785714284 27.4811320754717  C 2.5965401785714284 27.4811320754717  2.639508928571429 27.427672955974845  2.7254464285714284 27.320754716981135  C 2.8113839285714293 27.21383647798742  2.8604910714285716 27.157232704402514  2.872767857142857 27.150943396226413  C 2.9587053571428577 27.050314465408807  3.1489955357142856 26.833333333333336  3.443638392857143 26.5  C 3.73828125 26.166666666666664  3.9500558035714284 25.927672955974845  4.078962053571429 25.78301886792453  C 4.207868303571429 25.638364779874212  4.398158482142858 25.38993710691824  4.649832589285714 25.037735849056606  C 4.901506696428572 24.685534591194966  5.101004464285714 24.364779874213838  5.248325892857143 24.07547169811321  C 5.395647321428571 23.786163522012583  5.561383928571429 23.41509433962264  5.745535714285714 22.962264150943398  C 5.9296875 22.50943396226415  6.089285714285714 22.031446540880506  6.224330357142857 21.528301886792452  C 4.296875 20.408805031446537  2.777622767857143 19.0251572327044  1.6665736607142858 17.37735849056604  C 0.5555245535714285 15.72955974842767  0 13.962264150943396  0 12.075471698113207  C 0 10.440251572327043  0.4358258928571428 8.877358490566039  1.3074776785714286 7.38679245283019  C 2.1791294642857144 5.8962264150943415  3.3515625 4.61006289308176  4.824776785714286 3.5283018867924527  C 6.297991071428571 2.446540880503142  8.053571428571429 1.5880503144654043  10.091517857142858 0.9528301886792452  C 12.129464285714286 0.3176100628930796  14.265625 0  16.5 0  C 19.495535714285715 0  22.257812500000004 0.5377358490566039  24.786830357142858 1.6132075471698117  C 27.315848214285715 2.6886792452830193  29.316964285714285 4.154088050314461  30.790178571428573 6.00943396226415  Z " fill-rule="nonzero" fill="#ffffff" stroke="none" transform="matrix(1 0 0 1 178 716 )" />
  </g>
</svg>