<?xml version="1.0" encoding="utf-8"?>
<svg version="1.1" xmlns:xlink="http://www.w3.org/1999/xlink" width="33px" height="31px" xmlns="http://www.w3.org/2000/svg">
  <g transform="matrix(1 0 0 1 -118 -714 )">
    <path d="M 8.8 11.07142857142857  C 8.8 12.674479166666666  9.2640625 14.150669642857144  10.1921875 15.5  C 8.3359375 15.557663690476192  6.817708333333334 16.295758928571427  5.6375 17.71428571428571  L 3.334375 17.71428571428571  C 2.3947916666666664 17.71428571428571  1.604166666666667 17.480747767857142  0.9625 17.013671875  C 0.3208333333333333 16.546595982142858  0 15.86328125  0 14.96372767857143  C 0 10.89267113095238  0.7104166666666666 8.857142857142856  2.13125 8.857142857142856  C 2.2 8.857142857142856  2.44921875 8.978236607142856  2.87890625 9.220424107142856  C 3.30859375 9.462611607142856  3.8671875 9.707682291666666  4.5546875 9.955636160714286  C 5.2421875 10.203590029761905  5.923958333333333 10.327566964285714  6.6000000000000005 10.327566964285714  C 7.367708333333334 10.327566964285714  8.129687500000001 10.194940476190474  8.8859375 9.9296875  C 8.828645833333335 10.356398809523805  8.8 10.736979166666666  8.8 11.07142857142857  Z M 28.53984375 24.72907366071429  C 28.57994791666667 25.31147693452381  28.6 25.908296130952383  28.6 26.51953125  C 28.6 27.90345982142857  28.181770833333335 28.996186755952383  27.3453125 29.79771205357143  C 26.50885416666667 30.599237351190474  25.397395833333334 31  24.0109375 31  L 8.9890625 31  C 7.6026041666666675 31  6.491145833333335 30.599237351190474  5.6546875 29.79771205357143  C 4.818229166666667 28.996186755952383  4.4 27.90345982142857  4.4 26.51953125  C 4.4 25.908296130952383  4.420052083333333 25.31147693452381  4.46015625 24.72907366071429  C 4.500260416666667 24.146670386904763  4.58046875 23.51813616071429  4.70078125 22.843470982142858  C 4.82109375 22.168805803571427  4.972916666666667 21.543154761904763  5.15625 20.966517857142858  C 5.339583333333334 20.38988095238095  5.5859375 19.82765997023809  5.8953125 19.27985491071429  C 6.2046875 18.732049851190474  6.559895833333334 18.264973958333332  6.9609375 17.878627232142858  C 7.361979166666667 17.492280505952383  7.851822916666667 17.183779761904763  8.430468750000001 16.953125  C 9.009114583333334 16.722470238095234  9.647916666666667 16.607142857142858  10.346875 16.607142857142858  C 10.461458333333335 16.607142857142858  10.7078125 16.731119791666664  11.0859375 16.97907366071429  C 11.4640625 17.227027529761905  11.882291666666667 17.503813244047617  12.340625 17.809430803571427  C 12.798958333333335 18.115048363095234  13.411979166666667 18.39183407738095  14.1796875 18.639787946428573  C 14.947395833333335 18.88774181547619  15.720833333333335 19.01171875  16.5 19.01171875  C 17.27916666666667 19.01171875  18.05260416666667 18.88774181547619  18.8203125 18.639787946428573  C 19.588020833333335 18.39183407738095  20.20104166666667 18.115048363095234  20.659375 17.809430803571427  C 21.117708333333333 17.503813244047617  21.5359375 17.227027529761905  21.9140625 16.97907366071429  C 22.2921875 16.731119791666664  22.53854166666667 16.607142857142858  22.653125 16.607142857142858  C 23.352083333333333 16.607142857142858  23.99088541666667 16.722470238095234  24.56953125 16.953125  C 25.148177083333334 17.183779761904763  25.638020833333332 17.492280505952383  26.0390625 17.878627232142858  C 26.44010416666667 18.264973958333332  26.7953125 18.732049851190474  27.1046875 19.27985491071429  C 27.4140625 19.82765997023809  27.66041666666667 20.38988095238095  27.84375 20.966517857142858  C 28.027083333333337 21.543154761904763  28.17890625 22.168805803571427  28.29921875 22.843470982142858  C 28.41953125 23.51813616071429  28.499739583333334 24.146670386904763  28.53984375 24.72907366071429  Z M 9.7109375 1.2974330357142867  C 10.5703125 2.1623883928571432  11 3.2061011904761876  11 4.42857142857143  C 11 5.651041666666665  10.5703125 6.6947544642857135  9.7109375 7.55970982142857  C 8.8515625 8.42466517857143  7.814583333333334 8.857142857142856  6.6000000000000005 8.857142857142856  C 5.385416666666668 8.857142857142856  4.3484375 8.42466517857143  3.4890625 7.55970982142857  C 2.6296874999999997 6.6947544642857135  2.2 5.651041666666665  2.2 4.42857142857143  C 2.2 3.2061011904761876  2.6296874999999997 2.1623883928571432  3.4890625 1.2974330357142867  C 4.3484375 0.43247767857143005  5.385416666666668 0  6.6000000000000005 0  C 7.814583333333334 0  8.8515625 0.43247767857143005  9.7109375 1.2974330357142867  Z M 21.166406249999998 6.374720982142857  C 22.455468749999998 7.672154017857143  23.099999999999998 9.237723214285714  23.099999999999998 11.07142857142857  C 23.099999999999998 12.90513392857143  22.455468749999998 14.470703125  21.166406249999998 15.768136160714286  C 19.877343749999998 17.065569196428573  18.321875 17.71428571428571  16.5 17.71428571428571  C 14.678125000000003 17.71428571428571  13.122656250000002 17.065569196428573  11.83359375 15.768136160714286  C 10.54453125 14.470703125  9.9 12.90513392857143  9.9 11.07142857142857  C 9.9 9.237723214285714  10.54453125 7.672154017857143  11.83359375 6.374720982142857  C 13.122656250000002 5.07728794642857  14.678125000000003 4.42857142857143  16.5 4.42857142857143  C 18.321875 4.42857142857143  19.877343749999998 5.07728794642857  21.166406249999998 6.374720982142857  Z M 30.86875 8.857142857142856  C 32.28958333333334 8.857142857142856  33.00000000000001 10.89267113095238  33 14.96372767857143  C 33.00000000000001 15.86328125  32.67916666666667 16.546595982142858  32.0375 17.013671875  C 31.395833333333336 17.480747767857142  30.605208333333337 17.71428571428571  29.665625 17.71428571428571  L 27.3625 17.71428571428571  C 26.18229166666667 16.295758928571427  24.6640625 15.557663690476192  22.8078125 15.5  C 23.7359375 14.150669642857144  24.2 12.674479166666666  24.2 11.07142857142857  C 24.2 10.736979166666666  24.171354166666667 10.356398809523805  24.1140625 9.9296875  C 24.8703125 10.194940476190474  25.63229166666667 10.327566964285714  26.400000000000002 10.327566964285714  C 27.07604166666667 10.327566964285714  27.7578125 10.203590029761905  28.4453125 9.955636160714286  C 29.1328125 9.707682291666666  29.69140625 9.462611607142856  30.12109375 9.220424107142856  C 30.55078125 8.978236607142856  30.8 8.857142857142856  30.86875 8.857142857142856  Z M 29.5109375 1.2974330357142867  C 30.3703125 2.1623883928571432  30.8 3.2061011904761876  30.8 4.42857142857143  C 30.8 5.651041666666665  30.3703125 6.6947544642857135  29.5109375 7.55970982142857  C 28.6515625 8.42466517857143  27.614583333333336 8.857142857142856  26.400000000000002 8.857142857142856  C 25.18541666666667 8.857142857142856  24.1484375 8.42466517857143  23.2890625 7.55970982142857  C 22.4296875 6.6947544642857135  22 5.651041666666665  22 4.42857142857143  C 22 3.2061011904761876  22.4296875 2.1623883928571432  23.2890625 1.2974330357142867  C 24.1484375 0.43247767857143005  25.18541666666667 0  26.400000000000002 0  C 27.614583333333336 0  28.6515625 0.43247767857143005  29.5109375 1.2974330357142867  Z " fill-rule="nonzero" fill="#ffffff" stroke="none" transform="matrix(1 0 0 1 118 714 )" />
  </g>
</svg>