<?xml version="1.0" encoding="utf-8"?>
<svg version="1.1" xmlns:xlink="http://www.w3.org/1999/xlink" width="33px" height="33px" xmlns="http://www.w3.org/2000/svg">
  <g transform="matrix(1 0 0 1 -299 -714 )">
    <path d="M 25.716796875 18.841796875000004  C 25.988932291666668 18.569661458333332  26.125 18.247395833333332  26.125 17.875000000000004  L 26.125 15.125000000000002  C 26.125 14.752604166666664  25.988932291666668 14.430338541666664  25.716796875 14.158203125000002  C 25.444661458333336 13.886067708333334  25.122395833333336 13.749999999999998  24.75 13.749999999999998  L 19.25 13.749999999999998  L 19.25 8.25  C 19.25 7.877604166666663  19.113932291666668 7.555338541666663  18.841796875 7.283203125  C 18.569661458333336 7.011067708333333  18.247395833333336 6.875000000000001  17.875 6.875000000000001  L 15.125 6.875000000000001  C 14.752604166666668 6.875000000000001  14.430338541666668 7.011067708333333  14.158203125 7.283203125  C 13.886067708333334 7.555338541666663  13.75 7.877604166666663  13.75 8.25  L 13.75 13.749999999999998  L 8.25 13.749999999999998  C 7.877604166666667 13.749999999999998  7.555338541666667 13.886067708333334  7.283203125 14.158203125000002  C 7.011067708333334 14.430338541666664  6.875 14.752604166666664  6.875 15.125000000000002  L 6.875 17.875000000000004  C 6.875 18.247395833333332  7.011067708333334 18.569661458333332  7.283203125 18.841796875000004  C 7.555338541666667 19.113932291666664  7.877604166666667 19.249999999999996  8.25 19.249999999999996  L 13.75 19.249999999999996  L 13.75 24.75  C 13.75 25.122395833333332  13.886067708333334 25.444661458333332  14.158203125 25.716796875  C 14.430338541666668 25.988932291666668  14.752604166666668 26.125  15.125 26.125  L 17.875 26.125  C 18.247395833333336 26.125  18.569661458333336 25.988932291666668  18.841796875 25.716796875  C 19.113932291666668 25.444661458333332  19.25 25.122395833333332  19.25 24.75  L 19.25 19.249999999999996  L 24.75 19.249999999999996  C 25.122395833333336 19.249999999999996  25.444661458333336 19.113932291666664  25.716796875 18.841796875000004  Z M 30.787109375 8.2177734375  C 32.262369791666664 10.745768229166664  33 13.506510416666663  33 16.5  C 33 19.493489583333336  32.262369791666664 22.25423177083333  30.787109375 24.7822265625  C 29.311848958333336 27.310221354166668  27.310221354166668 29.311848958333332  24.7822265625 30.787109375  C 22.254231770833336 32.26236979166667  19.493489583333336 33  16.5 33  C 13.506510416666668 33  10.745768229166668 32.26236979166667  8.2177734375 30.787109375  C 5.689778645833334 29.311848958333332  3.688151041666667 27.310221354166668  2.212890625 24.7822265625  C 0.7376302083333333 22.25423177083333  0 19.493489583333336  0 16.5  C 0 13.506510416666663  0.7376302083333333 10.745768229166664  2.212890625 8.2177734375  C 3.688151041666667 5.689778645833333  5.689778645833334 3.6881510416666634  8.2177734375 2.2128906249999987  C 10.745768229166668 0.7376302083333305  13.506510416666668 0  16.5 0  C 19.493489583333336 0  22.254231770833336 0.7376302083333305  24.7822265625 2.2128906249999987  C 27.310221354166668 3.6881510416666634  29.311848958333336 5.689778645833333  30.787109375 8.2177734375  Z " fill-rule="nonzero" fill="#ffffff" stroke="none" transform="matrix(1 0 0 1 299 714 )" />
  </g>
</svg>