<?xml version="1.0" encoding="utf-8"?>
<svg version="1.1" xmlns:xlink="http://www.w3.org/1999/xlink" width="14px" height="18px" xmlns="http://www.w3.org/2000/svg">
  <g transform="matrix(1 0 0 1 -27 -395 )">
    <path d="M 12.87 7.844866071428572  C 13.196666666666667 7.824776785714285  13.473333333333334 7.931919642857142  13.7 8.166294642857142  C 13.926666666666668 8.40066964285714  14.023333333333333 8.675223214285714  13.99 8.989955357142858  L 13.55 14.52455357142857  C 13.523333333333333 14.80580357142857  13.408333333333335 15.040178571428571  13.205 15.22767857142857  C 13.001666666666669 15.415178571428571  12.763333333333334 15.50892857142857  12.49 15.50892857142857  C 12.45 15.50892857142857  12.42 15.505580357142858  12.399999999999999 15.49888392857143  C 12.106666666666667 15.478794642857142  11.865 15.356584821428571  11.675 15.132254464285715  C 11.485000000000001 14.907924107142858  11.4 14.648437499999998  11.42 14.353794642857142  L 11.77 10.044642857142858  L 10.34 10.125  C 10.706666666666669 10.881696428571429  10.889999999999999 11.685267857142856  10.889999999999999 12.535714285714285  C 10.889999999999999 13.982142857142858  10.396666666666667 15.22767857142857  9.41 16.272321428571427  L 8.04 14.896205357142858  C 8.646666666666667 14.219866071428571  8.950000000000001 13.433035714285714  8.95 12.535714285714285  C 8.950000000000001 11.564732142857142  8.608333333333336 10.734374999999996  7.925 10.044642857142858  C 7.241666666666667 9.354910714285714  6.416666666666667 9.010044642857142  5.45 9.010044642857142  C 4.5566666666666675 9.010044642857142  3.77 9.318080357142858  3.0900000000000003 9.934151785714285  L 1.72 8.547991071428573  C 2.52 7.784598214285715  3.466666666666667 7.3125  4.5600000000000005 7.131696428571428  L 7.199999999999999 4.118303571428572  L 5.71 3.2444196428571423  L 3.9000000000000004 4.861607142857142  C 3.6799999999999997 5.0625  3.423333333333334 5.154575892857142  3.13 5.137834821428572  C 2.836666666666667 5.121093749999998  2.5933333333333337 5.002232142857142  2.4 4.78125  C 2.206666666666667 4.560267857142858  2.1183333333333336 4.302455357142856  2.135 4.0078125  C 2.151666666666667 3.713169642857142  2.2666666666666666 3.4687499999999987  2.48 3.274553571428572  L 4.87 1.1350446428571426  C 5.043333333333333 0.9810267857142845  5.243333333333333 0.8922991071428561  5.470000000000001 0.8688616071428574  C 5.696666666666667 0.8454241071428548  5.91 0.8939732142857149  6.11 1.0145089285714277  L 10.99 3.8571428571428577  C 11.23 3.9977678571428577  11.39 4.225446428571427  11.47 4.540178571428572  C 11.583333333333334 4.988839285714285  11.496666666666668 5.380580357142855  11.21 5.715401785714285  L 9.16 8.045758928571427  L 12.87 7.844866071428572  Z M 12.985 3.053571428571428  C 12.635 3.401785714285712  12.213333333333335 3.5758928571428577  11.72 3.5758928571428577  C 11.226666666666668 3.5758928571428577  10.806666666666668 3.401785714285712  10.459999999999999 3.053571428571428  C 10.113333333333335 2.7053571428571415  9.94 2.2834821428571415  9.94 1.7879464285714277  C 9.94 1.2924107142857122  10.113333333333335 0.8705357142857122  10.459999999999999 0.5223214285714277  C 10.806666666666668 0.17410714285714524  11.226666666666668 0  11.72 0  C 12.213333333333335 0  12.635 0.17410714285714524  12.985 0.5223214285714277  C 13.335 0.8705357142857122  13.51 1.2924107142857122  13.51 1.7879464285714277  C 13.51 2.2834821428571415  13.335 2.7053571428571415  12.985 3.053571428571428  Z M 2.975 15.021763392857142  C 3.6583333333333337 15.708147321428571  4.483333333333333 16.051339285714285  5.45 16.051339285714285  C 6.156666666666667 16.051339285714285  6.8100000000000005 15.847098214285714  7.409999999999999 15.43861607142857  L 8.8 16.834821428571427  C 7.826666666666668 17.611607142857142  6.71 18  5.45 18  C 4.463333333333334 18  3.5516666666666676 17.755580357142858  2.715 17.266741071428573  C 1.8783333333333336 16.777901785714285  1.2166666666666668 16.114955357142858  0.73 15.277901785714285  C 0.24333333333333346 14.440848214285715  0 13.526785714285715  0 12.535714285714285  C 0 11.276785714285712  0.3866666666666666 10.151785714285714  1.16 9.160714285714285  L 2.55 10.556919642857142  C 2.1500000000000004 11.146205357142858  1.9500000000000002 11.805803571428571  1.9500000000000002 12.535714285714285  C 1.9500000000000002 13.506696428571429  2.2916666666666665 14.335379464285715  2.975 15.021763392857142  Z " fill-rule="nonzero" fill="#000000" stroke="none" transform="matrix(1 0 0 1 27 395 )" />
  </g>
</svg>