<?xml version="1.0" encoding="utf-8"?>
<svg version="1.1" xmlns:xlink="http://www.w3.org/1999/xlink" width="21px" height="22px" xmlns="http://www.w3.org/2000/svg">
  <defs>
    <mask fill="white" id="clip60">
      <path d="M 21 6.368421052631581  C 21 2.8021052631578947  18.459000000000003 0  15.225 0  C 13.39799999999999 0  11.644499999999994 0.9378947368421038  10.5 2.4199999999999986  C 9.355500000000006 0.9378947368421038  7.601999999999999 0  5.775 0  C 2.540999999999997 0  0 2.8021052631578947  0 6.368421052631581  C 0 10.745263157894733  3.5699999999999963 14.311578947368412  8.977499999999992 19.73052631578948  L 10.5 21.24736842105263  L 12.022500000000008 19.718947368421055  C 17.430000000000003 14.311578947368412  21 10.745263157894733  21 6.368421052631581  Z " fill-rule="evenodd" />
    </mask>
  </defs>
  <g transform="matrix(1 0 0 1 -301 -232 )">
    <path d="M 21 6.368421052631581  C 21 2.8021052631578947  18.459000000000003 0  15.225 0  C 13.39799999999999 0  11.644499999999994 0.9378947368421038  10.5 2.4199999999999986  C 9.355500000000006 0.9378947368421038  7.601999999999999 0  5.775 0  C 2.540999999999997 0  0 2.8021052631578947  0 6.368421052631581  C 0 10.745263157894733  3.5699999999999963 14.311578947368412  8.977499999999992 19.73052631578948  L 10.5 21.24736842105263  L 12.022500000000008 19.718947368421055  C 17.430000000000003 14.311578947368412  21 10.745263157894733  21 6.368421052631581  Z " fill-rule="nonzero" fill="#ffffff" stroke="none" transform="matrix(1 0 0 1 301 232 )" />
    <path d="M 21 6.368421052631581  C 21 2.8021052631578947  18.459000000000003 0  15.225 0  C 13.39799999999999 0  11.644499999999994 0.9378947368421038  10.5 2.4199999999999986  C 9.355500000000006 0.9378947368421038  7.601999999999999 0  5.775 0  C 2.540999999999997 0  0 2.8021052631578947  0 6.368421052631581  C 0 10.745263157894733  3.5699999999999963 14.311578947368412  8.977499999999992 19.73052631578948  L 10.5 21.24736842105263  L 12.022500000000008 19.718947368421055  C 17.430000000000003 14.311578947368412  21 10.745263157894733  21 6.368421052631581  Z " stroke-width="2" stroke="#000000" fill="none" transform="matrix(1 0 0 1 301 232 )" mask="url(#clip60)" />
  </g>
</svg>